<svg width="22" height="21" viewBox="0 0 22 21" fill="none" xmlns="http://www.w3.org/2000/svg">
<path d="M8.48199 8.60368V15.3866C8.48199 15.6115 8.58176 15.8272 8.75936 15.9862C8.93695 16.1452 9.17781 16.2345 9.42896 16.2345C9.68012 16.2345 9.92098 16.1452 10.0986 15.9862C10.2762 15.8272 10.3759 15.6115 10.3759 15.3866V8.60368C10.3759 8.37881 10.2762 8.16315 10.0986 8.00415C9.92098 7.84514 9.68012 7.75581 9.42896 7.75581C9.17781 7.75581 8.93695 7.84514 8.75936 8.00415C8.58176 8.16315 8.48199 8.37881 8.48199 8.60368Z" fill="black"/>
<path d="M13.2169 7.75581C13.468 7.75581 13.7089 7.84514 13.8865 8.00415C14.0641 8.16315 14.1638 8.37881 14.1638 8.60368V15.3866C14.1638 15.6115 14.0641 15.8272 13.8865 15.9862C13.7089 16.1452 13.468 16.2345 13.2169 16.2345C12.9657 16.2345 12.7248 16.1452 12.5473 15.9862C12.3697 15.8272 12.2699 15.6115 12.2699 15.3866V8.60368C12.2699 8.37881 12.3697 8.16315 12.5473 8.00415C12.7248 7.84514 12.9657 7.75581 13.2169 7.75581Z" fill="black"/>
<path d="M15.1108 3.51647H20.7926C21.0438 3.51647 21.2846 3.6058 21.4622 3.76481C21.6398 3.92381 21.7396 4.13947 21.7396 4.36434C21.7396 4.58921 21.6398 4.80487 21.4622 4.96387C21.2846 5.12288 21.0438 5.21221 20.7926 5.21221H19.7453L18.321 16.7025C18.1924 17.7395 17.6411 18.6976 16.7727 19.3935C15.9044 20.0893 14.7799 20.474 13.6146 20.4738H9.03125C7.86591 20.474 6.74145 20.0893 5.87309 19.3935C5.00473 18.6976 4.45346 17.7395 4.32481 16.7025L2.89867 5.21221H1.85322C1.60207 5.21221 1.3612 5.12288 1.18361 4.96387C1.00602 4.80487 0.90625 4.58921 0.90625 4.36434C0.90625 4.13947 1.00602 3.92381 1.18361 3.76481C1.3612 3.6058 1.60207 3.51647 1.85322 3.51647H7.53504C7.53504 2.617 7.93412 1.75436 8.64448 1.11834C9.35485 0.482315 10.3183 0.125 11.3229 0.125C12.3275 0.125 13.291 0.482315 14.0013 1.11834C14.7117 1.75436 15.1108 2.617 15.1108 3.51647V3.51647ZM11.3229 1.82074C10.8206 1.82074 10.3389 1.99939 9.9837 2.31741C9.62852 2.63542 9.42898 3.06674 9.42898 3.51647H13.2169C13.2169 3.06674 13.0173 2.63542 12.6621 2.31741C12.307 1.99939 11.8252 1.82074 11.3229 1.82074V1.82074ZM4.80587 5.21221L6.20739 16.516C6.28475 17.1381 6.61558 17.7128 7.13658 18.1301C7.65758 18.5475 8.33216 18.7782 9.03125 18.7781H13.6146C14.3133 18.7778 14.9875 18.5469 15.5081 18.1296C16.0287 17.7122 16.3592 17.1378 16.4366 16.516L17.8419 5.21221H4.80776H4.80587Z" fill="black"/>
</svg>
